<svg width="128" height="128" viewBox="0 0 128 128" fill="none" xmlns="http://www.w3.org/2000/svg">
  <defs>
    <linearGradient id="gradient" x1="0%" y1="0%" x2="100%" y2="100%">
      <stop offset="0%" style="stop-color:#667eea"/>
      <stop offset="100%" style="stop-color:#764ba2"/>
    </linearGradient>
  </defs>
  
  <!-- 背景圆形 -->
  <circle cx="64" cy="64" r="60" fill="url(#gradient)" stroke="white" stroke-width="4"/>
  
  <!-- 翻译图标 -->
  <g transform="translate(32, 32)">
    <!-- 文档背景 -->
    <rect x="8" y="12" width="48" height="32" rx="4" fill="white" opacity="0.9"/>
    
    <!-- 文字行 -->
    <rect x="12" y="18" width="40" height="2" rx="1" fill="#667eea"/>
    <rect x="12" y="24" width="32" height="2" rx="1" fill="#667eea"/>
    <rect x="12" y="30" width="36" height="2" rx="1" fill="#667eea"/>
    
    <!-- 箭头 -->
    <path d="M44 20 L52 20 L48 16 L52 20 L48 24 Z" fill="#764ba2"/>
    
    <!-- 翻译后的文字 -->
    <rect x="12" y="36" width="28" height="2" rx="1" fill="#764ba2"/>
    <rect x="12" y="40" width="24" height="2" rx="1" fill="#764ba2"/>
  </g>
  
  <!-- 悬浮效果点 -->
  <circle cx="80" cy="40" r="3" fill="white" opacity="0.8"/>
  <circle cx="88" cy="48" r="2" fill="white" opacity="0.6"/>
  <circle cx="76" cy="56" r="2.5" fill="white" opacity="0.7"/>
</svg>