<svg width="128" height="128" viewBox="0 0 128 128" fill="none" xmlns="http://www.w3.org/2000/svg">
  <!-- èƒŒæ™¯åœ†å½¢ - æ¸å˜è“è‰² -->
  <defs>
    <linearGradient id="bgGradient" x1="0%" y1="0%" x2="100%" y2="100%">
      <stop offset="0%" style="stop-color:#4F46E5;stop-opacity:1" />
      <stop offset="100%" style="stop-color:#7C3AED;stop-opacity:1" />
    </linearGradient>
    <linearGradient id="bubbleGradient" x1="0%" y1="0%" x2="100%" y2="100%">
      <stop offset="0%" style="stop-color:#FFFFFF;stop-opacity:1" />
      <stop offset="100%" style="stop-color:#F3F4F6;stop-opacity:1" />
    </linearGradient>
  </defs>
  
  <!-- ä¸»èƒŒæ™¯åœ† -->
  <circle cx="64" cy="64" r="60" fill="url(#bgGradient)"/>
  
  <!-- é£˜åŠ¨çš„å°å¹½çµ ðŸ‘» (å±…ä¸­ + ä¾§èº«é£˜åŠ¨å§¿æ€) -->
  <g transform="translate(64, 64) rotate(-12) scale(0.92, 1.08)">
    <!-- å¹½çµä¸»ä½“ (é£˜åŠ¨å§¿æ€ - åº•éƒ¨æ³¢æµªæ›´åŠ¨æ„Ÿ) -->
    <path d="M -42 8 
             Q -42 -48 0 -48 
             Q 42 -48 42 8 
             L 42 38 
             Q 35 45 25 38 
             Q 18 32 8 38 
             Q 0 44 -8 38 
             Q -18 32 -25 38 
             Q -35 45 -42 38 
             Z" 
          fill="#FFFFFF" 
          stroke="#E5E7EB"
          stroke-width="2"
          opacity="0.98"
          filter="url(#softGlow)"/>
    
    <!-- å·¦çœ¼ (æ›´å¤§æ›´æœ‰ç¥ž) -->
    <ellipse cx="-16" cy="-15" rx="6" ry="8" fill="#2D3748"/>
    <circle cx="-15" cy="-17" r="2.5" fill="#FFFFFF"/>
    <circle cx="-17" cy="-13" r="1.2" fill="#FFFFFF" opacity="0.7"/>
    
    <!-- å³çœ¼ (ç¨å¾®ä¸å¯¹ç§°ï¼Œæ›´çµåŠ¨) -->
    <ellipse cx="16" cy="-13" rx="6" ry="8" fill="#2D3748"/>
    <circle cx="17" cy="-15" r="2.5" fill="#FFFFFF"/>
    <circle cx="15" cy="-11" r="1.2" fill="#FFFFFF" opacity="0.7"/>
    
    <!-- ä¿çš®çš„å¾®ç¬‘ (ä¸å¯¹ç§°) -->
    <path d="M -13 5 Q -5 10 5 8 Q 10 7 12 6" stroke="#2D3748" stroke-width="3" fill="none" stroke-linecap="round"/>
    
    <!-- å°èˆŒå¤´ (å¢žåŠ å¯çˆ±æ„Ÿ) -->
    <ellipse cx="2" cy="9" rx="3" ry="2" fill="#FF6B9D" opacity="0.6"/>
    
    <!-- é£˜åŠ¨çš„å°æ‰‹ (å·¦) -->
    <ellipse cx="-38" cy="10" rx="7" ry="5" fill="#FFFFFF" opacity="0.9" transform="rotate(-25 -38 10)"/>
    
    <!-- é£˜åŠ¨çš„å°æ‰‹ (å³) -->
    <ellipse cx="38" cy="12" rx="7" ry="5" fill="#FFFFFF" opacity="0.9" transform="rotate(25 38 12)"/>
  </g>
  
  <!-- æŸ”å’Œå…‰æ™•æ•ˆæžœ -->
  <defs>
    <filter id="softGlow">
      <feGaussianBlur stdDeviation="0.5" result="coloredBlur"/>
      <feMerge>
        <feMergeNode in="coloredBlur"/>
        <feMergeNode in="SourceGraphic"/>
      </feMerge>
    </filter>
  </defs>
  
  <!-- è£…é¥°æ€§æ˜Ÿæ˜Ÿ âœ¨ -->
  <g opacity="0.8">
    <circle cx="24" cy="24" r="2" fill="#FBBF24"/>
    <circle cx="104" cy="24" r="2" fill="#FBBF24"/>
    <circle cx="24" cy="104" r="2" fill="#FBBF24"/>
    <circle cx="104" cy="104" r="2" fill="#FBBF24"/>
  </g>
  
  <!-- å¯çˆ±çš„é—ªå…‰æ•ˆæžœ -->
  <g opacity="0.6">
    <path d="M 20 30 L 22 34 L 18 34 Z" fill="#FFFFFF"/>
    <path d="M 108 30 L 110 34 L 106 34 Z" fill="#FFFFFF"/>
  </g>
</svg>
